<svg width="175" height="94" viewBox="0 0 175 94" fill="none" xmlns="http://www.w3.org/2000/svg">
<rect x="1.5" y="1.5" width="172" height="91" stroke="#454545" stroke-width="3"/>
<path d="M20.8182 38V14.7273H34.7727V17.2273H23.6364V25.0909H33.7273V27.5909H23.6364V38H20.8182ZM42.4176 14.7273V38H39.5994V14.7273H42.4176ZM46.7955 17.2273V14.7273H64.25V17.2273H56.9318V38H54.1136V17.2273H46.7955ZM87.054 14.7273V38H84.3267L71.6449 19.7273H71.4176V38H68.5994V14.7273H71.3267L84.054 33.0455H84.2812V14.7273H87.054ZM92.6932 38V14.7273H106.739V17.2273H95.5114V25.0909H106.011V27.5909H95.5114V35.5H106.92V38H92.6932ZM124.545 20.5455C124.409 19.3939 123.856 18.5 122.886 17.8636C121.917 17.2273 120.727 16.9091 119.318 16.9091C118.288 16.9091 117.386 17.0758 116.614 17.4091C115.848 17.7424 115.25 18.2008 114.818 18.7841C114.394 19.3674 114.182 20.0303 114.182 20.7727C114.182 21.3939 114.33 21.928 114.625 22.375C114.928 22.8144 115.314 23.1818 115.784 23.4773C116.254 23.7652 116.746 24.0038 117.261 24.1932C117.777 24.375 118.25 24.5227 118.682 24.6364L121.045 25.2727C121.652 25.4318 122.326 25.6515 123.068 25.9318C123.818 26.2121 124.534 26.5947 125.216 27.0795C125.905 27.5568 126.473 28.1705 126.92 28.9205C127.367 29.6705 127.591 30.5909 127.591 31.6818C127.591 32.9394 127.261 34.0758 126.602 35.0909C125.951 36.1061 124.996 36.9129 123.739 37.5114C122.489 38.1098 120.97 38.4091 119.182 38.4091C117.515 38.4091 116.072 38.1402 114.852 37.6023C113.64 37.0644 112.686 36.3144 111.989 35.3523C111.299 34.3902 110.909 33.2727 110.818 32H113.727C113.803 32.8788 114.098 33.6061 114.614 34.1818C115.136 34.75 115.795 35.1742 116.591 35.4545C117.394 35.7273 118.258 35.8636 119.182 35.8636C120.258 35.8636 121.223 35.6894 122.08 35.3409C122.936 34.9848 123.614 34.4924 124.114 33.8636C124.614 33.2273 124.864 32.4848 124.864 31.6364C124.864 30.8636 124.648 30.2348 124.216 29.75C123.784 29.2652 123.216 28.8712 122.511 28.5682C121.807 28.2652 121.045 28 120.227 27.7727L117.364 26.9545C115.545 26.4318 114.106 25.6856 113.045 24.7159C111.985 23.7462 111.455 22.4773 111.455 20.9091C111.455 19.6061 111.807 18.4697 112.511 17.5C113.223 16.5227 114.178 15.7652 115.375 15.2273C116.58 14.6818 117.924 14.4091 119.409 14.4091C120.909 14.4091 122.242 14.678 123.409 15.2159C124.576 15.7462 125.5 16.4735 126.182 17.3977C126.871 18.322 127.235 19.3712 127.273 20.5455H124.545ZM144.952 20.5455C144.815 19.3939 144.262 18.5 143.293 17.8636C142.323 17.2273 141.134 16.9091 139.724 16.9091C138.694 16.9091 137.793 17.0758 137.02 17.4091C136.255 17.7424 135.656 18.2008 135.224 18.7841C134.8 19.3674 134.588 20.0303 134.588 20.7727C134.588 21.3939 134.736 21.928 135.031 22.375C135.334 22.8144 135.721 23.1818 136.19 23.4773C136.66 23.7652 137.152 24.0038 137.668 24.1932C138.183 24.375 138.656 24.5227 139.088 24.6364L141.452 25.2727C142.058 25.4318 142.732 25.6515 143.474 25.9318C144.224 26.2121 144.94 26.5947 145.622 27.0795C146.312 27.5568 146.88 28.1705 147.327 28.9205C147.774 29.6705 147.997 30.5909 147.997 31.6818C147.997 32.9394 147.668 34.0758 147.009 35.0909C146.357 36.1061 145.402 36.9129 144.145 37.5114C142.895 38.1098 141.376 38.4091 139.588 38.4091C137.921 38.4091 136.478 38.1402 135.259 37.6023C134.046 37.0644 133.092 36.3144 132.395 35.3523C131.705 34.3902 131.315 33.2727 131.224 32H134.134C134.209 32.8788 134.505 33.6061 135.02 34.1818C135.543 34.75 136.202 35.1742 136.997 35.4545C137.8 35.7273 138.664 35.8636 139.588 35.8636C140.664 35.8636 141.63 35.6894 142.486 35.3409C143.342 34.9848 144.02 34.4924 144.52 33.8636C145.02 33.2273 145.27 32.4848 145.27 31.6364C145.27 30.8636 145.054 30.2348 144.622 29.75C144.19 29.2652 143.622 28.8712 142.918 28.5682C142.213 28.2652 141.452 28 140.634 27.7727L137.77 26.9545C135.952 26.4318 134.512 25.6856 133.452 24.7159C132.391 23.7462 131.861 22.4773 131.861 20.9091C131.861 19.6061 132.213 18.4697 132.918 17.5C133.63 16.5227 134.584 15.7652 135.781 15.2273C136.986 14.6818 138.33 14.4091 139.815 14.4091C141.315 14.4091 142.649 14.678 143.815 15.2159C144.982 15.7462 145.906 16.4735 146.588 17.3977C147.277 18.322 147.641 19.3712 147.679 20.5455H144.952ZM20.8182 77V53.7273H34.8636V56.2273H23.6364V64.0909H34.1364V66.5909H23.6364V74.5H35.0455V77H20.8182ZM52.6705 59.5455C52.5341 58.3939 51.9811 57.5 51.0114 56.8636C50.0417 56.2273 48.8523 55.9091 47.4432 55.9091C46.4129 55.9091 45.5114 56.0758 44.7386 56.4091C43.9735 56.7424 43.375 57.2008 42.9432 57.7841C42.5189 58.3674 42.3068 59.0303 42.3068 59.7727C42.3068 60.3939 42.4545 60.928 42.75 61.375C43.053 61.8144 43.4394 62.1818 43.9091 62.4773C44.3788 62.7652 44.8712 63.0038 45.3864 63.1932C45.9015 63.375 46.375 63.5227 46.8068 63.6364L49.1705 64.2727C49.7765 64.4318 50.4508 64.6515 51.1932 64.9318C51.9432 65.2121 52.6591 65.5947 53.3409 66.0795C54.0303 66.5568 54.5985 67.1705 55.0455 67.9205C55.4924 68.6705 55.7159 69.5909 55.7159 70.6818C55.7159 71.9394 55.3864 73.0758 54.7273 74.0909C54.0758 75.1061 53.1212 75.9129 51.8636 76.5114C50.6136 77.1098 49.0947 77.4091 47.3068 77.4091C45.6402 77.4091 44.197 77.1402 42.9773 76.6023C41.7652 76.0644 40.8106 75.3144 40.1136 74.3523C39.4242 73.3902 39.0341 72.2727 38.9432 71H41.8523C41.928 71.8788 42.2235 72.6061 42.7386 73.1818C43.2614 73.75 43.9205 74.1742 44.7159 74.4545C45.5189 74.7273 46.3826 74.8636 47.3068 74.8636C48.3826 74.8636 49.3485 74.6894 50.2045 74.3409C51.0606 73.9848 51.7386 73.4924 52.2386 72.8636C52.7386 72.2273 52.9886 71.4848 52.9886 70.6364C52.9886 69.8636 52.7727 69.2348 52.3409 68.75C51.9091 68.2652 51.3409 67.8712 50.6364 67.5682C49.9318 67.2652 49.1705 67 48.3523 66.7727L45.4886 65.9545C43.6705 65.4318 42.2311 64.6856 41.1705 63.7159C40.1098 62.7462 39.5795 61.4773 39.5795 59.9091C39.5795 58.6061 39.9318 57.4697 40.6364 56.5C41.3485 55.5227 42.303 54.7652 43.5 54.2273C44.7045 53.6818 46.0492 53.4091 47.5341 53.4091C49.0341 53.4091 50.3674 53.678 51.5341 54.2159C52.7008 54.7462 53.625 55.4735 54.3068 56.3977C54.9962 57.322 55.3598 58.3712 55.3977 59.5455H52.6705ZM59.0767 56.2273V53.7273H76.5312V56.2273H69.2131V77H66.3949V56.2273H59.0767ZM79.1165 77H76.1619L84.7074 53.7273H87.6165L96.1619 77H93.2074L86.2528 57.4091H86.071L79.1165 77ZM80.2074 67.9091H92.1165V70.4091H80.2074V67.9091ZM84.9347 51.3636L87.7074 46.0909H90.8438L87.2983 51.3636H84.9347ZM117.42 61H114.602C114.436 60.1894 114.144 59.4773 113.727 58.8636C113.318 58.25 112.818 57.7348 112.227 57.3182C111.644 56.8939 110.996 56.5758 110.284 56.3636C109.572 56.1515 108.83 56.0455 108.057 56.0455C106.648 56.0455 105.371 56.4015 104.227 57.1136C103.091 57.8258 102.186 58.875 101.511 60.2614C100.845 61.6477 100.511 63.3485 100.511 65.3636C100.511 67.3788 100.845 69.0795 101.511 70.4659C102.186 71.8523 103.091 72.9015 104.227 73.6136C105.371 74.3258 106.648 74.6818 108.057 74.6818C108.83 74.6818 109.572 74.5758 110.284 74.3636C110.996 74.1515 111.644 73.8371 112.227 73.4205C112.818 72.9962 113.318 72.4773 113.727 71.8636C114.144 71.2424 114.436 70.5303 114.602 69.7273H117.42C117.208 70.9167 116.822 71.9811 116.261 72.9205C115.701 73.8598 115.004 74.6591 114.17 75.3182C113.337 75.9697 112.402 76.4659 111.364 76.8068C110.333 77.1477 109.231 77.3182 108.057 77.3182C106.072 77.3182 104.307 76.8333 102.761 75.8636C101.216 74.8939 100 73.5152 99.1136 71.7273C98.2273 69.9394 97.7841 67.8182 97.7841 65.3636C97.7841 62.9091 98.2273 60.7879 99.1136 59C100 57.2121 101.216 55.8333 102.761 54.8636C104.307 53.8939 106.072 53.4091 108.057 53.4091C109.231 53.4091 110.333 53.5795 111.364 53.9205C112.402 54.2614 113.337 54.7614 114.17 55.4205C115.004 56.072 115.701 56.8674 116.261 57.8068C116.822 58.7386 117.208 59.803 117.42 61ZM124.793 53.7273V77H121.974V53.7273H124.793ZM150.08 65.3636C150.08 67.8182 149.636 69.9394 148.75 71.7273C147.864 73.5152 146.648 74.8939 145.102 75.8636C143.557 76.8333 141.792 77.3182 139.807 77.3182C137.822 77.3182 136.057 76.8333 134.511 75.8636C132.966 74.8939 131.75 73.5152 130.864 71.7273C129.977 69.9394 129.534 67.8182 129.534 65.3636C129.534 62.9091 129.977 60.7879 130.864 59C131.75 57.2121 132.966 55.8333 134.511 54.8636C136.057 53.8939 137.822 53.4091 139.807 53.4091C141.792 53.4091 143.557 53.8939 145.102 54.8636C146.648 55.8333 147.864 57.2121 148.75 59C149.636 60.7879 150.08 62.9091 150.08 65.3636ZM147.352 65.3636C147.352 63.3485 147.015 61.6477 146.341 60.2614C145.674 58.875 144.769 57.8258 143.625 57.1136C142.489 56.4015 141.216 56.0455 139.807 56.0455C138.398 56.0455 137.121 56.4015 135.977 57.1136C134.841 57.8258 133.936 58.875 133.261 60.2614C132.595 61.6477 132.261 63.3485 132.261 65.3636C132.261 67.3788 132.595 69.0795 133.261 70.4659C133.936 71.8523 134.841 72.9015 135.977 73.6136C137.121 74.3258 138.398 74.6818 139.807 74.6818C141.216 74.6818 142.489 74.3258 143.625 73.6136C144.769 72.9015 145.674 71.8523 146.341 70.4659C147.015 69.0795 147.352 67.3788 147.352 65.3636Z" fill="white"/>
<path d="M156.409 77.1818C155.848 77.1818 155.367 76.9811 154.966 76.5795C154.564 76.178 154.364 75.697 154.364 75.1364C154.364 74.5758 154.564 74.0947 154.966 73.6932C155.367 73.2917 155.848 73.0909 156.409 73.0909C156.97 73.0909 157.451 73.2917 157.852 73.6932C158.254 74.0947 158.455 74.5758 158.455 75.1364C158.455 75.5076 158.36 75.8485 158.17 76.1591C157.989 76.4697 157.742 76.7197 157.432 76.9091C157.129 77.0909 156.788 77.1818 156.409 77.1818Z" fill="#CC0011"/>
</svg>
